inDegrees=no
num_controls=7
num_derivatives=13
num_iterations=148
num_multipliers=7
num_parameters=0
num_slacks=7
num_states=26
objective=0.497026
objective_accelerations=0.042212
objective_balance=0.003547
objective_effort=0.039707
objective_height=0.405732
objective_ligament=0.005828
solver_duration=1733.250366
status=Solve_Succeeded
success=true
DataType=double
version=3
OpenSimVersion=4.5
endheader
time	/jointset/ground_pelvis/pelvis_tilt/value	/jointset/ground_pelvis/pelvis_tx/value	/jointset/ground_pelvis/pelvis_ty/value	/jointset/hip_r/hip_flexion_r/value	/jointset/hip_r/hip_adduction_r/value	/jointset/hip_r/hip_rotation_r/value	/jointset/back/lumbar_extension/value	/jointset/patellofemoral_r/patellar_flexion_r/value	/jointset/knee_r/knee_flexion_r/value	/jointset/knee_r/knee_adduction_r/value	/jointset/knee_r/knee_rotation_r/value	/jointset/ankle_r/ankle_angle_r/value	/jointset/subtalar_r/subtalar_angle_r/value	/jointset/ground_pelvis/pelvis_tilt/speed	/jointset/ground_pelvis/pelvis_tx/speed	/jointset/ground_pelvis/pelvis_ty/speed	/jointset/hip_r/hip_flexion_r/speed	/jointset/hip_r/hip_adduction_r/speed	/jointset/hip_r/hip_rotation_r/speed	/jointset/back/lumbar_extension/speed	/jointset/patellofemoral_r/patellar_flexion_r/speed	/jointset/knee_r/knee_flexion_r/speed	/jointset/knee_r/knee_adduction_r/speed	/jointset/knee_r/knee_rotation_r/speed	/jointset/ankle_r/ankle_angle_r/speed	/jointset/subtalar_r/subtalar_angle_r/speed	/forceset/tau_hip_flexion_r	/forceset/tau_hip_adduction_r	/forceset/tau_hip_rotation_r	/forceset/tau_knee_flexion_r	/forceset/tau_ankle_angle_r	/forceset/tau_subtalar_angle_r	/forceset/tau_lumbar_extension	lambda_cid13_p0	lambda_cid14_p0	lambda_cid14_p1	lambda_cid14_p2	lambda_cid14_p3	lambda_cid14_p4	lambda_cid14_p5	/jointset/ground_pelvis/pelvis_tilt/accel	/jointset/ground_pelvis/pelvis_tx/accel	/jointset/ground_pelvis/pelvis_ty/accel	/jointset/hip_r/hip_flexion_r/accel	/jointset/hip_r/hip_adduction_r/accel	/jointset/hip_r/hip_rotation_r/accel	/jointset/back/lumbar_extension/accel	/jointset/patellofemoral_r/patellar_flexion_r/accel	/jointset/knee_r/knee_flexion_r/accel	/jointset/knee_r/knee_adduction_r/accel	/jointset/knee_r/knee_rotation_r/accel	/jointset/ankle_r/ankle_angle_r/accel	/jointset/subtalar_r/subtalar_angle_r/accel	gamma_cid13_p0	gamma_cid14_p0	gamma_cid14_p1	gamma_cid14_p2	gamma_cid14_p3	gamma_cid14_p4	gamma_cid14_p5
1.5	-0.1487752136332573	0.04444519483564451	0.8506891195068866	0.7788990713333603	-0.2399476868610788	-0.1116867517038956	-0.2856988589579728	0.7244084880926849	0.7244084880926094	0.0638403293795405	0.1745275348991231	0.2625280215292614	0.04277945807597311	0.3367371003227064	0.1550578929412526	0.4111988683924238	-1.75985666617603	0.03717439903018133	-0.3994922198934882	0.6978307610191093	-1.957919966187918	-1.957919966187914	0.1875061135672608	-3.527221148238221e-05	-0.6232335266721893	-0.1155251719162938	-0.09099515413883018	-0.01990961351387166	0.01134769253088358	-0.3344795855365761	0.06471625035354564	-0.01100971006889027	0.1390328038193153	-29.93361535134411	-20.50404653242673	-4.369784946597808	-3.414434779537204	2.066586666408667	-655.1776317481988	58.33783029451715	0.1659505866825478	0.3584967303874947	-0.5474739337249631	-0.8475607683913072	0.09886972899059003	-0.3428935456483801	1.341735109843146	-1.136859759950151	-1.136859759950112	0.5273063496587852	-0.02641270211247424	-0.5505289832080581	0.04513649084759169	1.497031204021013e-07	1.010661801404915e-07	-1.446629015154893e-06	8.194813500882967e-07	9.350851456937867e-08	2.018340315396026e-07	-1.071381393149652e-06
1.51	-0.1453998222500112	0.04601347024137255	0.8547728723247375	0.7612601066667356	-0.2395717624146604	-0.1156991551703663	-0.2786547849999311	0.7047750360523011	0.7047750360522966	0.06574288544461855	0.1745272302106785	0.2562687540704875	0.04162558052047449	0.3382930764227071	0.1585706072481399	0.4054637611354817	-1.767686281307866	0.03800657311461365	-0.4029630725694094	0.7108697122932865	-1.968482236684781	-1.968482236684785	0.1930004570084163	-2.833855712383072e-05	-0.6285269676889357	-0.1152331038366989	-0.08468964446605538	-0.02177872227714223	0.01079333772308351	-0.3308735243035087	0.0682403630458862	-0.01205596685952909	0.1332547388438886	-31.07061743350379	-19.21394378659082	-4.492586953236977	-3.515591013901814	1.662710633756883	-651.2650766219385	58.25485649459444	0.1432152614764702	0.343691638880524	-0.5996728616233484	-0.713151801079924	0.07480111049741707	-0.3451479587445792	1.267827391848842	-0.9727125810011897	-0.9727125810024774	0.5596114909507979	0.01399130473339721	-0.5047666713536182	0.0236806240587873	1.587003444211199e-07	1.068470212348593e-07	-1.541399524559837e-06	8.590670294169435e-07	9.77979498386762e-08	2.216326819435005e-07	-1.136835454830847e-06
1.52	-0.1420103122778014	0.04761607936177771	0.8587966453220299	0.7435503478656927	-0.239187634254933	-0.1197454605296318	-0.2714837510780188	0.6850446009296599	0.6850446009297252	0.06770020757402966	0.1745269438398826	0.249959349199457	0.04047511137728046	0.3395608181154118	0.1619246358766793	0.3992029042807598	-1.774015493059709	0.03881514169216061	-0.4062725984525544	0.7232227537932162	-1.977316582639516	-1.977316582639529	0.1984593264338463	-3.160868183010415e-05	-0.6332610091235098	-0.1148434894553704	-0.07838413479328071	-0.02364783104041178	0.01023898291528037	-0.327267463070441	0.07176447573822707	-0.01310222365016638	0.1274766738684614	-32.19104178877355	-17.92740900495149	-4.612154667930618	-3.621671242464857	1.247828593354921	-647.418430010519	58.23255712519638	0.1083037052233469	0.3267595947179013	-0.6526238532809393	-0.5474800923927725	0.0941486276135244	-0.310628187093156	1.204553154993661	-0.791274851524475	-0.7912748515244843	0.5202115465136723	-0.02845345792544094	-0.4386490667736277	0.06464575119427537	1.669256453473814e-07	1.057557285173274e-07	-1.640062247365178e-06	8.752603038136446e-07	1.090948370027191e-07	2.225309160259719e-07	-1.194543139454252e-06
1.53	-0.1386097095485394	0.04925139982588466	0.8627552235074143	0.7257850209904405	-0.2387955776940284	-0.1238242385818627	-0.2641925560821792	0.6652346345381799	0.6652346345381058	0.06971187774722132	0.1745267614452198	0.2436054738378004	0.03932900473117205	0.3405103524954852	0.1651090177638469	0.3924325100974017	-1.778795005794983	0.03959108808809973	-0.4094537159284018	0.7348907551948417	-1.984380072949563	-1.984380072949572	0.2038690398248723	-8.4661931523257e-06	-0.6374158850263116	-0.1143614899720554	-0.07200671027428697	-0.02563484391490982	0.009653634158859123	-0.3238762602232513	0.07550147823160279	-0.01428395813039713	0.121661076671596	-33.28181546740083	-16.59389773123121	-4.788875878430132	-3.711168061236159	0.8274999525367861	-643.8103683084817	58.15397885513513	0.08088107001092786	0.3097391827068064	-0.7012419901680542	-0.4049444928084154	0.06852562112528832	-0.317226009442406	1.129100105803345	-0.6194283737360928	-0.6194283737353344	0.5502813628254133	0.01730343541221646	-0.3891422128161836	0.04224847020340472	1.743307779875885e-07	9.736279362465192e-08	-1.74286044690844e-06	8.665991479701539e-07	1.278371418049288e-07	2.03347457766928e-07	-1.244020298453755e-06
1.54	-0.135201090922354	0.05091765644826143	0.8666436987931041	0.7079795474620929	-0.2383959200740569	-0.1279339023051739	-0.256788445777712	0.6453629247930018	0.6453629247927873	0.07177743107980915	0.1745267315420737	0.2372130026449591	0.03818817236455742	0.3411639975000211	0.1681118675306447	0.3851823243418514	-1.782044823678808	0.04033535350568612	-0.4124497326687243	0.74580581551872	-1.989665253379258	-1.989665253379261	0.2092359583130323	-1.110378561312785e-06	-0.640980175360423	-0.113788633556609	-0.0656292857552933	-0.02762185678940661	0.009068285402435868	-0.3204850573760614	0.07923848072497888	-0.01546569261062608	0.1158454794747302	-34.33659526908467	-15.26817818750864	-4.962687698395199	-3.80601071026462	0.4064923797754035	-640.3333786915871	58.14396769726099	0.04912583011589559	0.2904531706439096	-0.7485821677193816	-0.2415411221032103	0.08781243194298263	-0.2736080399881827	1.053964939444239	-0.4356128754539179	-0.4356128754539187	0.5116525659404817	-0.0316107927427949	-0.3205319530355629	0.08281713762055189	1.817527409710672e-07	9.149077706594267e-08	-1.840122157202849e-06	8.643316415998032e-07	1.429677703526599e-07	1.917773010257183e-07	-1.291633123339905e-06
